# xmcd
# Track frame offsets:
# 150
# 22250
# 35827
# 55285
# 71200
# 90680
# 105760
# 122095
# 138972
# 156822
# 174997
# 189472
# 205240
# 222897
# 239370
# 256982
# 271557
#
# Disc length: 3883 seconds
# Revision: 0
# Processed by: cddbd v1.4PL0 Copyright (c) Steve Scherf et al.
# Submitted via: VisiTrax 2.9.5.180 - For more info visit www.synapsa.com
#
DISCID=f00f2911
DTITLE=Suzie Merwine - Bring the woman out in me
DYEAR=1998
DGENRE=
TTITLE0=Bring the woman out in me
TTITLE1=Praer on a wing
TTITLE2=Backdoor of my mind
TTITLE3=Worse off then bad
TTITLE4=I think my part
TTITLE5=ou and your baby blues
TTITLE6=Love me right
TTITLE7=What can I say to you
TTITLE8=Bluest heart in town (Ronnie's song)
TTITLE9=Mind of a fool
TTITLE10=I sure like the harmony
TTITLE11=Tribute to Loretta
TTITLE12=You're the only problem
TTITLE13=Almost doesn't count
TTITLE14=I crossed a bridge
TTITLE15=Rattlesnake Jake
TTITLE16=Take my hand
EXTD=
EXTT0=
EXTT1=
EXTT2=
EXTT3=
EXTT4=
EXTT5=
EXTT6=
EXTT7=
EXTT8=
EXTT9=
EXTT10=
EXTT11=
EXTT12=
EXTT13=
EXTT14=
EXTT15=
EXTT16=
PLAYORDER=
